<?xml version="1.0" encoding="UTF-8"?>
<svg xmlns="http://www.w3.org/2000/svg" viewBox="0 0 170 52">
  <g fill="#fff">
    <path d="M26.5439 30.7743C26.3481 32.1447 25.8783 33.241 25.1344 34.1023C24.3905 34.9637 23.5683 35.551 22.6482 35.8642C22.1979 36.0208 21.7085 36.1383 21.1995 36.2166C20.6513 36.2949 20.064 36.3341 19.4572 36.3341C18.6741 36.3341 17.9889 36.2558 17.4016 36.1187C15.5418 35.688 14.6022 34.5526 14.6022 32.7515V12.3135C14.6022 10.5321 15.5027 9.61197 17.2842 9.61197V9.02467H8.14188V9.61197C9.92335 9.61197 10.8239 10.5125 10.8239 12.3135V33.6716C10.8239 35.4727 9.94293 36.3732 8.16145 36.3732L8.14188 36.9214H26.7397L27.1116 30.7939L26.5439 30.7743Z     M33.1178 35.9043C32.922 37.2746 32.4522 38.3709 31.7083 39.2519C30.9643 40.1133 30.1421 40.7006 29.222 41.0138C28.2823 41.327 27.2252 41.4836 26.031 41.4836C22.8009 41.4836 21.1956 40.2894 21.1956 37.9011V17.4435C21.1956 15.6425 22.0961 14.742 23.8776 14.742V14.1547H14.7353V14.742C16.5168 14.742 17.4173 15.6425 17.4173 17.4435V38.8016C17.4173 40.6027 16.5364 41.5032 14.7549 41.5032L14.7353 42.0513H33.3331L33.7051 35.9239L33.1178 35.9043Z     M4.2677 0V1.74232H39.8188V47.1014H41.5612V0H4.2677ZM1.74232 49.3527V3.99363H0V51.095H37.5675V49.3527H1.74232Z     M0 3.99541V5.71815H35.8056V51.0772H37.548V3.99541H0Z     M6.00681 45.3786V0H4.26449V47.1013H41.5384V45.3786H6.00681Z"></path>
  </g>
  <g fill="#FF6300">
    <path d="M50.7005 34.0734V33.4665C52.2079 33.3882 52.6582 33.212 52.6582 31.5676V20.8788C52.6582 19.2343 52.2079 19.0581 50.7005 18.9798V18.3729H57.983V18.9798C56.2407 19.0581 55.81 19.2343 55.81 20.8788V31.8808C55.81 32.8205 56.0841 33.1533 57.846 33.1533C60.6846 33.1533 62.3486 32.6443 63.6994 29.884H64.3063L63.2296 34.0734H50.7005Z     M72.7808 34.4444C67.1231 34.4444 64.8914 29.9026 64.8914 26.2222C64.8914 22.5614 67.1231 18 72.7808 18C78.4384 18 80.6701 22.5418 80.6701 26.2222C80.6701 29.9026 78.4384 34.4444 72.7808 34.4444ZM72.7808 19.0767C69.9226 19.0767 68.2781 21.3868 68.2781 26.2222C68.2781 31.0772 69.9226 33.3872 72.7808 33.3872C75.6389 33.3872 77.2834 31.0772 77.2834 26.2222C77.2834 21.3868 75.6389 19.0767 72.7808 19.0767Z     M90.6014 25.4988L93.4987 21.4073C94.0077 20.683 94.2426 20.1153 94.2426 19.6454C94.2426 19.2343 93.8707 19.019 92.2849 18.9798V18.3729H97.6294V18.9798C96.6114 19.2147 96.2198 19.5867 95.2802 20.8788L91.0908 26.7909V31.5872C91.0908 33.2316 91.541 33.4078 93.3225 33.4861V34.093H85.7072V33.4861C87.4887 33.4078 87.9389 33.2316 87.9389 31.5872V26.7909L83.2797 20.2131C82.6532 19.3126 82.2421 19.1756 81.4395 18.9994V18.3925H88.7612V18.9994C87.3321 19.0385 86.9014 19.2539 86.9014 19.802C86.9014 20.1153 87.3125 20.6047 87.8019 21.3486L90.6014 25.4988Z     M105.788 34.0724V33.4655C106.884 33.4655 107.452 33.2306 107.452 32.4671C107.452 31.8211 106.688 30.0984 106.493 29.5894H100.776C100.6 30.0984 99.8756 31.8211 99.8756 32.4671C99.8756 33.2306 100.404 33.4655 101.5 33.4655V34.0724H96.5084V33.4655C97.5068 33.2502 98.0354 32.9565 98.4269 31.9973L104.202 18H104.966L110.506 31.5079C111.113 32.9761 111.406 33.4851 112.6 33.4655V34.0724H105.788ZM106.023 28.4539L103.673 22.2481L101.305 28.4539H106.023Z     M119.2 34.0734V33.4665C120.707 33.3882 121.158 33.212 121.158 31.5676V20.8788C121.158 19.2343 120.707 19.0581 119.2 18.9798V18.3729H126.482V18.9798C124.74 19.0581 124.309 19.2343 124.309 20.8788V31.8808C124.309 32.8205 124.584 33.1533 126.345 33.1533C129.184 33.1533 130.848 32.6443 132.199 29.884H132.806L131.729 34.093H119.2V34.0734Z     M142.517 34.0724V33.4655C143.613 33.4655 144.181 33.2306 144.181 32.4671C144.181 31.8211 143.417 30.0984 143.221 29.5894H137.505C137.329 30.0984 136.604 31.8211 136.604 32.4671C136.604 33.2306 137.133 33.4655 138.229 33.4655V34.0724H133.218V33.4655C134.216 33.2502 134.745 32.9565 135.136 31.9973L140.911 18H141.675L147.215 31.5079C147.822 32.9761 148.115 33.4851 149.31 33.4655V34.0724H142.517ZM142.751 28.4539L140.402 22.2481L138.034 28.4539H142.751Z     M153.985 34.4454L149.326 21.4661C148.562 19.3909 148.191 19.1169 147.349 18.9798V18.3729H153.594V18.9798C152.517 18.9798 152.067 19.3909 152.067 19.9782C152.067 20.3698 152.282 20.8983 152.615 21.8772L155.473 29.747L158.018 23.2867L156.863 20.3502C156.491 19.4301 156.002 19.0777 154.807 18.9798V18.3729H161.855V18.9798C160.7 18.9798 160.054 19.156 160.054 19.8999C160.054 20.546 160.23 21.0354 160.563 21.8576L163.676 29.7274H163.715L166.456 21.975C166.73 21.2116 166.984 20.6047 166.984 20.037C166.984 19.293 166.456 19.019 165.144 18.9798V18.3729H169.999V18.9798C168.824 19.3909 168.491 19.7629 167.982 21.2507L163.323 34.4454H162.403L158.664 24.892L154.925 34.4454H153.985Z"></path>
  </g>
</svg>
